<svg xmlns="http://www.w3.org/2000/svg" viewBox="0 0 560 200">
  <!-- Белая плашка-флаг (значок самовара), без фонового фото -->
  <path d="M40 20 H150 L200 100 L150 180 H40 A20 20 0 0 1 20 160 V40 A20 20 0 0 1 40 20 Z" fill="#FFFFFF"/>

  <!-- Самовар -->
  <g transform="translate(56,26) scale(0.95)" fill="#1C1C1E">
    <rect x="34" y="-8" width="6" height="10" rx="2"/>
    <path d="M18 2 h36 a4 4 0 0 1 4 4 v10 a4 4 0 0 1-4 4 H18 a4 4 0 0 1-4-4 V6 a4 4 0 0 1 4-4z"/>
    <path d="M58 10 h8 a3 3 0 0 1 3 3 v2 a3 3 0 0 1-3 3 h-8 z"/>
    <rect x="10" y="22" width="52" height="6" rx="2"/>
    <circle cx="18" cy="34" r="2.6"/>
    <circle cx="27" cy="34" r="2.6"/>
    <circle cx="36" cy="34" r="2.6"/>
    <circle cx="45" cy="34" r="2.6"/>
    <circle cx="54" cy="34" r="2.6"/>
    <path d="M8 40 h56 a4 4 0 0 1 4 4 v34 a4 4 0 0 1-4 4 H8 a4 4 0 0 1-4-4 V44 a4 4 0 0 1 4-4z"/>
    <path d="M2 48 q-8 6 0 14" stroke="#1C1C1E" stroke-width="4" fill="none" stroke-linecap="round"/>
    <path d="M70 48 q8 6 0 14" stroke="#1C1C1E" stroke-width="4" fill="none" stroke-linecap="round"/>
    <rect x="28" y="82" width="16" height="6" rx="2"/>
    <circle cx="36" cy="92" r="5"/>
    <path d="M14 96 h48 l-6 14 H20 z"/>
    <g transform="translate(46,92)">
      <path d="M0 14 h26 l-3 8 a4 4 0 0 1-4 3 H7 a4 4 0 0 1-4-3 z"/>
      <ellipse cx="13" cy="14" rx="13" ry="3"/>
      <ellipse cx="13" cy="28" rx="16" ry="2.6" opacity=".5"/>
    </g>
    <path d="M40 88 q2 6 0 10" stroke="#1C1C1E" stroke-width="2.4" fill="none" stroke-linecap="round"/>
  </g>

  <!-- Текст: на прозрачном фоне вместо зелёных кустов -->
  <text x="228" y="98" font-family="-apple-system, Segoe UI, Arial, sans-serif" font-size="58" font-weight="800" letter-spacing="1" fill="#F0B429">ВАШ</text>
  <text x="228" y="150" font-family="-apple-system, Segoe UI, Arial, sans-serif" font-size="40" font-weight="800" letter-spacing="2"
        fill="#FFFFFF" stroke="#1C1C1E" stroke-width="1.4" paint-order="stroke fill">ОТДЫХ</text>

  <!-- Белая скобка-акцент справа -->
  <path d="M480 34 h-16 M480 34 V166 M480 166 h-16" fill="none" stroke="#FFFFFF" stroke-width="7" stroke-linecap="round" stroke-linejoin="round"/>
</svg>
